<svg width="30" height="23" viewBox="0 0 30 23" fill="none" xmlns="http://www.w3.org/2000/svg">
<path d="M0 3.7931C0 2.78711 0.395088 1.82232 1.09835 1.11097C1.80161 0.399629 2.75544 0 3.75 0H26.25C27.2446 0 28.1984 0.399629 28.9016 1.11097C29.6049 1.82232 30 2.78711 30 3.7931V18.9655C30 19.9715 29.6049 20.9363 28.9016 21.6476C28.1984 22.359 27.2446 22.7586 26.25 22.7586H3.75C2.75544 22.7586 1.80161 22.359 1.09835 21.6476C0.395088 20.9363 0 19.9715 0 18.9655V3.7931ZM3.75 1.89655C3.25272 1.89655 2.77581 2.09637 2.42417 2.45204C2.07254 2.80771 1.875 3.29011 1.875 3.7931V4.20466L15 12.1702L28.125 4.20466V3.7931C28.125 3.29011 27.9275 2.80771 27.5758 2.45204C27.2242 2.09637 26.7473 1.89655 26.25 1.89655H3.75ZM28.125 6.41603L19.2975 11.7738L28.125 17.2681V6.41603ZM28.0612 19.4567L17.4863 12.8738L15 14.3816L12.5137 12.8738L1.93875 19.4548C2.0453 19.8584 2.28059 20.2151 2.60811 20.4696C2.93562 20.724 3.33702 20.862 3.75 20.8621H26.25C26.6627 20.8621 27.0639 20.7244 27.3914 20.4703C27.7189 20.2162 27.9544 19.86 28.0612 19.4567ZM1.875 17.2681L10.7025 11.7738L1.875 6.41603V17.2681Z" fill="black"/>
</svg>
