<svg width="14" height="14" viewBox="0 0 14 14" fill="none" xmlns="http://www.w3.org/2000/svg">
<path d="M6.09173 13.3619L0.301064 3.1028C-0.382321 1.89574 0.173082 6.88129e-07 1.21023 6.88129e-07H12.7916C13.0237 -0.000307771 13.2509 0.103092 13.4461 0.297818C13.6413 0.492545 13.7961 0.770343 13.892 1.09794C13.988 1.42555 14.021 1.78907 13.987 2.14497C13.9531 2.50088 13.8537 2.83408 13.7007 3.10467L7.91007 13.36C7.79674 13.561 7.65698 13.7221 7.50017 13.8325C7.34336 13.9429 7.17313 14 7.0009 14C6.82868 14 6.65844 13.9429 6.50163 13.8325C6.34482 13.7221 6.20506 13.561 6.09173 13.36V13.3619Z" fill="black"/>
</svg>
