<svg width="27" height="26" viewBox="0 0 27 26" fill="none" xmlns="http://www.w3.org/2000/svg">
<g clip-path="url(#clip0_2_42)">
<path d="M19.189 16.809C20.7625 14.6618 21.4672 11.9998 21.1623 9.35535C20.8573 6.71092 19.5651 4.27916 17.5441 2.54657C15.5232 0.813977 12.9226 -0.091664 10.2626 0.0108299C7.60265 0.113324 5.07945 1.21639 3.19783 3.09935C1.31622 4.98232 0.214953 7.5063 0.114362 10.1664C0.0137717 12.8264 0.921273 15.4264 2.65531 17.4461C4.38934 19.4657 6.82203 20.7562 9.46668 21.0593C12.1113 21.3624 14.7729 20.6557 16.9189 19.0807H16.9173C16.9649 19.1457 17.018 19.208 17.0765 19.2676L23.3328 25.5239C23.6375 25.8288 24.0508 26.0002 24.4819 26.0003C24.9129 26.0005 25.3264 25.8294 25.6313 25.5247C25.9362 25.22 26.1076 24.8066 26.1078 24.3756C26.1079 23.9445 25.9368 23.531 25.6321 23.2261L19.3759 16.9699C19.3178 16.911 19.2554 16.8583 19.189 16.809ZM19.6083 10.5625C19.6083 11.7362 19.3771 12.8984 18.9279 13.9827C18.4788 15.0671 17.8205 16.0523 16.9905 16.8822C16.1606 17.7122 15.1754 18.3705 14.091 18.8197C13.0067 19.2688 11.8445 19.5 10.6708 19.5C9.49708 19.5 8.33488 19.2688 7.25054 18.8197C6.16619 18.3705 5.18093 17.7122 4.351 16.8822C3.52108 16.0523 2.86275 15.0671 2.4136 13.9827C1.96445 12.8984 1.73327 11.7362 1.73327 10.5625C1.73327 8.19211 2.6749 5.91882 4.351 4.24271C6.02711 2.56661 8.3004 1.62498 10.6708 1.62498C13.0411 1.62498 15.3144 2.56661 16.9905 4.24271C18.6666 5.91882 19.6083 8.19211 19.6083 10.5625Z" fill="black"/>
</g>
<defs>
<clipPath id="clip0_2_42">
<rect width="26" height="26" fill="white" transform="translate(0.108154)"/>
</clipPath>
</defs>
</svg>
