<svg width="26" height="26" viewBox="0 0 26 26" fill="none" xmlns="http://www.w3.org/2000/svg">
<path d="M13 1.625C14.2314 1.625 15.4123 2.05301 16.283 2.81488C17.1537 3.57675 17.6429 4.61006 17.6429 5.6875V6.5H8.35714V5.6875C8.35714 4.61006 8.8463 3.57675 9.717 2.81488C10.5877 2.05301 11.7686 1.625 13 1.625ZM19.5 6.5V5.6875C19.5 4.17908 18.8152 2.73244 17.5962 1.66583C16.3772 0.599217 14.7239 0 13 0C11.2761 0 9.62279 0.599217 8.40381 1.66583C7.18482 2.73244 6.5 4.17908 6.5 5.6875V6.5H0V22.75C0 23.612 0.391325 24.4386 1.08789 25.0481C1.78445 25.6576 2.7292 26 3.71429 26H22.2857C23.2708 26 24.2155 25.6576 24.9121 25.0481C25.6087 24.4386 26 23.612 26 22.75V6.5H19.5ZM1.85714 8.125H24.1429V22.75C24.1429 23.181 23.9472 23.5943 23.5989 23.899C23.2506 24.2038 22.7783 24.375 22.2857 24.375H3.71429C3.22174 24.375 2.74937 24.2038 2.40109 23.899C2.05281 23.5943 1.85714 23.181 1.85714 22.75V8.125Z" fill="black"/>
</svg>
